<svg width="82" height="117" viewBox="0 0 82 117" fill="none" xmlns="http://www.w3.org/2000/svg">
<path d="M52.2908 37.1428C45.8479 33.5405 44.4574 23.7658 49.185 15.3102C53.9126 6.85462 62.968 2.92023 69.4109 6.52247C75.8537 10.1247 77.2442 19.8995 72.5166 28.3551C67.789 36.8107 58.7336 40.745 52.2908 37.1428Z" fill="#FF9E2C"/>
<path d="M52.285 32.6846L56.0908 34.8125L13.5682 110.867L9.76236 108.739L52.285 32.6846Z" fill="#FF9E2C"/>
<path d="M72.5312 13.3742C72.5551 14.6911 72.4963 15.9617 72.3912 17.3151C72.2034 18.6222 72.0618 19.8466 71.7912 21.1075C71.1674 23.583 70.249 26.0025 68.8342 28.1445C67.4194 30.2864 65.5545 32.068 63.4512 33.4991C61.2651 34.8839 58.8869 35.8354 56.3895 36.6117C57.6698 36.4585 58.9599 36.0935 60.2499 35.7285C61.54 35.3635 62.7571 34.7405 63.8453 34.1539C64.9797 33.4847 66.0776 32.6864 67.0101 31.7955C67.9425 30.9047 68.8385 29.8849 69.6153 28.6898C71.0764 26.4651 72.0873 23.8801 72.4629 21.2658C72.9676 18.615 73.0488 15.9447 72.5312 13.3742Z" fill="white"/>
<path d="M30.0491 78.4804C28.5418 80.7878 27.071 83.2243 25.6464 85.578C24.2218 87.9317 22.8337 90.4144 21.4918 92.8144C20.15 95.2144 18.7619 97.6971 17.5028 100.143L15.5496 103.831C14.9383 105.119 14.2905 106.277 13.6792 107.565C14.456 106.37 15.1865 105.257 15.8805 104.016L17.9992 100.421C19.4238 98.0672 20.8119 95.5845 22.1537 93.1845C23.4956 90.7845 24.8837 88.3018 26.1428 85.8556C27.5674 83.5018 28.8728 80.9729 30.0491 78.4804Z" fill="white"/>
</svg>
