<svg width="68" height="127" viewBox="0 0 68 127" fill="none" xmlns="http://www.w3.org/2000/svg">
<path d="M21.5976 35.0994L25.9807 33.5684L56.577 121.158L52.1938 122.69L21.5976 35.0994Z" fill="#FF9E2C"/>
<path d="M5.60588 10.7432L14.2288 35.4285C14.7947 37.0488 16.309 38.017 17.5477 37.5843L19.3581 36.9519C20.5968 36.5192 21.1789 34.8187 20.6129 33.1985L11.99 8.5131C11.424 6.89283 12.0061 5.19236 13.2448 4.75966L13.5306 4.65981C14.7693 4.22711 16.2836 5.19533 16.8496 6.8156L25.4725 31.501C26.0384 33.1212 27.5527 34.0894 28.7914 33.6567L30.6971 32.9911C31.9358 32.5584 32.5178 30.8579 31.9519 29.2376L23.329 4.55227C22.763 2.93199 23.345 1.23152 24.5838 0.798824C25.8225 0.366128 27.3367 1.33434 27.9027 2.95462L39.6551 36.5991C40.2211 38.2194 39.6391 39.9199 38.4003 40.3526L16.1035 48.1411C14.8648 48.5738 13.3506 47.6056 12.7846 45.9853L1.03218 12.3408C0.466197 10.7205 1.04824 9.02005 2.28695 8.58736C3.52566 8.15466 5.0399 9.12288 5.60588 10.7432Z" fill="#FF9E2C"/>
<path d="M26.9821 5.52181C28.2897 9.87734 29.6926 14.1996 31.1288 18.6171C32.5317 22.9394 34.0299 27.2283 35.5613 31.6126L36.1273 33.2329L36.3937 33.9954C36.4603 34.186 36.5601 34.4719 36.5314 34.6958C36.6738 35.7155 36.2731 36.711 35.5487 37.3918C35.1389 37.7488 34.791 37.9773 34.2193 38.177L32.5995 38.7428C31.5513 39.1089 30.4079 39.5083 29.3598 39.8745L22.9137 42.2331C20.7554 43.094 18.6591 43.8262 16.5008 44.6871C18.7257 44.0168 20.8553 43.3799 23.0468 42.6144L29.5595 40.4463C30.6077 40.0802 31.7511 39.6808 32.7992 39.3147L34.4191 38.7488C34.8955 38.5824 35.6578 38.3161 36.0344 37.8638C37.0113 36.9878 37.536 35.7352 37.389 34.3963C37.3844 34.0771 37.2845 33.7911 37.1514 33.4099L36.885 32.6474L36.319 31.0271C34.8208 26.7382 33.3227 22.4492 31.6959 18.0982C30.2976 14.0952 28.7041 9.83951 26.9821 5.52181Z" fill="white"/>
<path d="M43.1294 87.2502C43.9044 90.0808 44.8079 92.9734 45.6781 95.7707C46.5483 98.568 47.5471 101.427 48.5126 104.191C49.4781 106.955 50.4769 109.815 51.5376 112.545L53.0978 116.706C53.6925 118.102 54.1586 119.436 54.7533 120.833C54.3492 119.37 53.9783 118.002 53.4789 116.573L52.1093 112.346C51.2391 109.548 50.2403 106.689 49.2748 103.925C48.3094 101.161 47.3106 98.3017 46.2498 95.571C45.3796 92.7737 44.3188 90.043 43.1294 87.2502Z" fill="white"/>
<path d="M39.3799 86.3147C40.1548 89.1453 41.0583 92.0378 41.9285 94.8351C42.7987 97.6324 43.7975 100.492 44.763 103.256C45.7285 106.02 46.7273 108.879 47.7881 111.61L49.3482 115.77C49.9429 117.166 50.409 118.501 51.0037 119.897C50.5996 118.434 50.2288 117.067 49.7294 115.637L48.3598 111.41C47.4896 108.613 46.4908 105.753 45.5253 102.989C44.5598 100.225 43.561 97.3661 42.5002 94.6354C41.5967 91.7428 40.5359 89.0121 39.3799 86.3147Z" fill="white"/>
</svg>
