<svg width="20" height="20" viewBox="0 0 20 20" fill="none" xmlns="http://www.w3.org/2000/svg">
<rect width="20" height="20" fill="white"/>
<path d="M14.9321 11.9334C14.7162 12.1425 14.6171 12.445 14.6662 12.7417L15.4071 16.8417C15.4696 17.1892 15.3229 17.5409 15.0321 17.7417C14.7471 17.95 14.3679 17.975 14.0571 17.8084L10.3662 15.8834C10.2379 15.815 10.0954 15.7784 9.94958 15.7742H9.72375C9.64541 15.7859 9.56875 15.8109 9.49875 15.8492L5.80708 17.7834C5.62458 17.875 5.41791 17.9075 5.21541 17.875C4.72208 17.7817 4.39291 17.3117 4.47375 16.8159L5.21541 12.7159C5.26458 12.4167 5.16541 12.1125 4.94958 11.9L1.94041 8.98337C1.68875 8.73921 1.60125 8.37254 1.71625 8.04171C1.82791 7.71171 2.11291 7.47087 2.45708 7.41671L6.59875 6.81587C6.91375 6.78337 7.19041 6.59171 7.33208 6.30837L9.15708 2.56671C9.20041 2.48337 9.25625 2.40671 9.32375 2.34171L9.39875 2.28337C9.43791 2.24004 9.48291 2.20421 9.53291 2.17504L9.62375 2.14171L9.76541 2.08337H10.1162C10.4296 2.11587 10.7054 2.30337 10.8496 2.58337L12.6987 6.30837C12.8321 6.58087 13.0912 6.77004 13.3904 6.81587L17.5321 7.41671C17.8821 7.46671 18.1746 7.70837 18.2904 8.04171C18.3996 8.37587 18.3054 8.74254 18.0487 8.98337L14.9321 11.9334Z" fill="#FFC75F"/>
</svg>
