<svg width="20" height="20" viewBox="0 0 20 20" fill="none" xmlns="http://www.w3.org/2000/svg">
<rect width="20" height="20" fill="white"/>
<path d="M14.9321 11.9335C14.7162 12.1427 14.6171 12.4452 14.6662 12.7418L15.4071 16.8418C15.4696 17.1893 15.3229 17.541 15.0321 17.7418C14.7471 17.9502 14.3679 17.9752 14.0571 17.8085L10.3662 15.8835C10.2379 15.8152 10.0954 15.7785 9.94958 15.7743H9.72375C9.64541 15.786 9.56875 15.811 9.49875 15.8493L5.80708 17.7835C5.62458 17.8752 5.41791 17.9077 5.21541 17.8752C4.72208 17.7818 4.39291 17.3118 4.47375 16.816L5.21541 12.716C5.26458 12.4168 5.16541 12.1127 4.94958 11.9002L1.94041 8.9835C1.68875 8.73933 1.60125 8.37266 1.71625 8.04183C1.82791 7.71183 2.11291 7.471 2.45708 7.41683L6.59875 6.816C6.91375 6.7835 7.19041 6.59183 7.33208 6.3085L9.15708 2.56683C9.20041 2.4835 9.25625 2.40683 9.32375 2.34183L9.39875 2.2835C9.43791 2.24016 9.48291 2.20433 9.53291 2.17516L9.62375 2.14183L9.76541 2.0835H10.1162C10.4296 2.116 10.7054 2.3035 10.8496 2.5835L12.6987 6.3085C12.8321 6.581 13.0912 6.77016 13.3904 6.816L17.5321 7.41683C17.8821 7.46683 18.1746 7.7085 18.2904 8.04183C18.3996 8.376 18.3054 8.74266 18.0487 8.9835L14.9321 11.9335Z" fill="#FFC75F"/>
</svg>
